# xmcd CD database file
#
# Track frame offsets:
#	150
#	11923
#	21458
#	32818
#	44020
#	55843
#	64460
#	76873
#	88480
#	99420
#	112068
#	122995
#	137515
#	148773
#	160255
#
# Disc length: 2271 seconds
#
# Revision: 5
# Processed by: cddbd v1.5.2PL0 Copyright (c) Steve Scherf et al.
# Submitted via: CDex 1.51
#
DISCID=df08dd0f
DTITLE=Patsy Cline - Volume 1 - Walkin' After Midnight
DYEAR=1990
DGENRE=Country
TTITLE0=Walkin' After Midnight
TTITLE1=Love Me, Love Me, Honey Do
TTITLE2=Just Out Of Reach
TTITLE3=Don't Ever Leave Me Agin
TTITLE4=If I Could Only Stay Asleep
TTITLE5=Come On In
TTITLE6=A Poor Man's Roses
TTITLE7=I've Loved And Lost Again
TTITLE8=There He Goes
TTITLE9=Just A Closer Walk With Thee
TTITLE10=That's How Much I Love You
TTITLE11=Then You'll Know
TTITLE12=Stop The World And Let Me Off
TTITLE13=Crazy Dreams
TTITLE14=Pick Me Up On Your Way Down
EXTD=YEAR: 1990
EXTT0=
EXTT1=
EXTT2=
EXTT3=
EXTT4=
EXTT5=
EXTT6=
EXTT7=
EXTT8=
EXTT9=
EXTT10=
EXTT11=
EXTT12=
EXTT13=
EXTT14=
PLAYORDER=
